<?xml version="1.0" encoding="UTF-8"?><svg xmlns="http://www.w3.org/2000/svg" xmlns:xlink="http://www.w3.org/1999/xlink" contentScriptType="text/ecmascript" width="1230pt" zoomAndPan="magnify" contentStyleType="text/css" viewBox="0 0 1230 693.000001" height="693.000001pt" preserveAspectRatio="xMidYMid meet" version="1.2"><defs><g/><clipPath xml:id="clip1" id="clip1"><path d="M 596.164062 103.183594 L 681.542969 103.183594 L 681.542969 183.023438 L 596.164062 183.023438 Z M 596.164062 103.183594 "/></clipPath></defs><g xml:id="surface1" id="surface1"><g clip-rule="nonzero" clip-path="url(#clip1)"><path style=" stroke:none;fill-rule:nonzero;fill:rgb(90.589905%,35.289001%,43.919373%);fill-opacity:1;" d="M 655 147.128906 C 655 138.308594 647.773438 131.160156 638.855469 131.160156 C 633.441406 131.160156 628.667969 133.800781 625.738281 137.839844 C 622.808594 133.800781 618.027344 131.160156 612.617188 131.160156 C 603.703125 131.160156 596.472656 138.308594 596.472656 147.128906 C 596.472656 148.378906 596.632812 149.59375 596.90625 150.757812 C 599.152344 164.535156 614.636719 179.078125 625.738281 183.066406 C 636.835938 179.078125 652.324219 164.535156 654.5625 150.761719 C 654.839844 149.59375 655 148.378906 655 147.128906 Z M 681.386719 114.203125 C 681.386719 108.09375 676.378906 103.140625 670.203125 103.140625 C 666.453125 103.140625 663.144531 104.972656 661.117188 107.769531 C 659.085938 104.972656 655.777344 103.140625 652.03125 103.140625 C 645.855469 103.140625 640.847656 108.09375 640.847656 114.203125 C 640.847656 115.070312 640.957031 115.910156 641.148438 116.714844 C 642.703125 126.257812 653.429688 136.332031 661.117188 139.09375 C 668.804688 136.328125 679.53125 126.257812 681.085938 116.71875 C 681.277344 115.910156 681.386719 115.070312 681.386719 114.203125 Z M 681.386719 114.203125 "/></g><g style="fill:rgb(100%,56.858826%,30.198669%);fill-opacity:1;"><g transform="translate(516.713362, 486.91897)"><path style="stroke:none;" d="M 3.046875 4.90625 C 1.210938 4.457031 -0.125 3.492188 -0.96875 2.015625 C -1.820312 0.535156 -1.972656 -1.316406 -1.421875 -3.546875 C -0.617188 -6.835938 1.46875 -10.222656 4.84375 -13.703125 C 8.21875 -17.191406 12.066406 -19.910156 16.390625 -21.859375 C 20.722656 -23.804688 24.617188 -24.359375 28.078125 -23.515625 C 30.242188 -22.972656 31.910156 -21.9375 33.078125 -20.40625 C 34.242188 -18.882812 34.597656 -17.203125 34.140625 -15.359375 C 33.828125 -14.078125 33.234375 -13.25 32.359375 -12.875 C 31.492188 -12.5 30.425781 -12.46875 29.15625 -12.78125 C 29.675781 -13.71875 30.050781 -14.660156 30.28125 -15.609375 C 30.625 -16.992188 30.566406 -18.195312 30.109375 -19.21875 C 29.660156 -20.25 28.738281 -20.9375 27.34375 -21.28125 C 24.882812 -21.882812 21.96875 -21.15625 18.59375 -19.09375 C 15.226562 -17.03125 12.164062 -14.328125 9.40625 -10.984375 C 6.65625 -7.640625 4.945312 -4.601562 4.28125 -1.875 C 3.738281 0.300781 4.222656 1.570312 5.734375 1.9375 C 7.960938 2.488281 11.019531 1.367188 14.90625 -1.421875 C 18.789062 -4.222656 23.085938 -7.734375 27.796875 -11.953125 C 28.492188 -11.660156 29.171875 -11.238281 29.828125 -10.6875 C 30.492188 -10.144531 30.757812 -9.597656 30.625 -9.046875 C 30.507812 -8.597656 30.066406 -7.945312 29.296875 -7.09375 C 28.535156 -6.25 28.078125 -5.753906 27.921875 -5.609375 C 26.578125 -4.242188 25.46875 -3 24.59375 -1.875 C 23.726562 -0.75 23.164062 0.335938 22.90625 1.390625 C 22.675781 2.335938 22.703125 3.242188 22.984375 4.109375 C 23.265625 4.984375 23.878906 5.539062 24.828125 5.78125 C 26.453125 6.175781 28.773438 5.515625 31.796875 3.796875 C 34.828125 2.085938 38.054688 -0.554688 41.484375 -4.140625 L 42.125 -3.109375 C 40.226562 -0.429688 38.070312 1.835938 35.65625 3.703125 C 33.238281 5.566406 30.8125 6.875 28.375 7.625 C 25.9375 8.375 23.742188 8.507812 21.796875 8.03125 C 19.847656 7.550781 18.5 6.613281 17.75 5.21875 C 17.007812 3.820312 16.835938 2.3125 17.234375 0.6875 C 17.410156 -0.0195312 17.6875 -0.800781 18.0625 -1.65625 C 14.726562 1.050781 11.878906 2.941406 9.515625 4.015625 C 7.160156 5.097656 5.003906 5.394531 3.046875 4.90625 Z M 3.046875 4.90625 "/></g></g><g style="fill:rgb(100%,56.858826%,30.198669%);fill-opacity:1;"><g transform="translate(553.17775, 495.913599)"><path style="stroke:none;" d="M 26.609375 8.34375 C 24.722656 7.875 23.394531 7.023438 22.625 5.796875 C 21.851562 4.566406 21.664062 3.144531 22.0625 1.53125 C 22.238281 0.8125 22.570312 0 23.0625 -0.90625 C 23.5625 -1.820312 24.066406 -2.722656 24.578125 -3.609375 C 25.160156 -4.535156 25.71875 -5.523438 26.25 -6.578125 C 26.78125 -7.628906 27.15625 -8.601562 27.375 -9.5 C 28.039062 -12.226562 27.253906 -13.867188 25.015625 -14.421875 C 22.898438 -14.941406 20.410156 -14.367188 17.546875 -12.703125 C 14.691406 -11.046875 12.019531 -9.070312 9.53125 -6.78125 C 7.039062 -4.5 4.179688 -1.710938 0.953125 1.578125 C -0.00390625 1.335938 -0.832031 0.960938 -1.53125 0.453125 C -2.226562 -0.046875 -2.734375 -0.65625 -3.046875 -1.375 C -2.972656 -1.644531 -2.359375 -2.554688 -1.203125 -4.109375 C 1.066406 -7.335938 3.007812 -10.304688 4.625 -13.015625 C 6.238281 -15.722656 7.359375 -18.207031 7.984375 -20.46875 C 8.492188 -20.820312 9.148438 -21.09375 9.953125 -21.28125 C 10.765625 -21.46875 11.535156 -21.472656 12.265625 -21.296875 C 13.765625 -20.921875 14.332031 -20.003906 13.96875 -18.546875 C 13.769531 -17.722656 13.160156 -16.328125 12.140625 -14.359375 C 11.128906 -12.390625 9.941406 -10.328125 8.578125 -8.171875 C 12.273438 -11.640625 15.976562 -14.421875 19.6875 -16.515625 C 23.40625 -18.617188 26.71875 -19.316406 29.625 -18.609375 C 31.6875 -18.097656 33.050781 -16.976562 33.71875 -15.25 C 34.382812 -13.519531 34.460938 -11.625 33.953125 -9.5625 C 33.648438 -8.332031 33.207031 -7.195312 32.625 -6.15625 C 32.039062 -5.113281 31.265625 -3.945312 30.296875 -2.65625 C 29.484375 -1.539062 28.828125 -0.570312 28.328125 0.25 C 27.828125 1.070312 27.46875 1.925781 27.25 2.8125 C 26.726562 4.9375 27.304688 6.207031 28.984375 6.625 C 30.878906 7.09375 33.148438 6.320312 35.796875 4.3125 C 38.453125 2.300781 41.15625 -0.316406 43.90625 -3.546875 L 44.5625 -2.234375 C 38.226562 6.203125 32.242188 9.726562 26.609375 8.34375 Z M 26.609375 8.34375 "/></g></g><g style="fill:rgb(100%,56.858826%,30.198669%);fill-opacity:1;"><g transform="translate(592.151163, 505.527126)"><path style="stroke:none;" d="M 4.3125 3.71875 C 2.6875 3.320312 1.382812 2.363281 0.40625 0.84375 C -0.570312 -0.664062 -0.78125 -2.5625 -0.21875 -4.84375 C 0.539062 -7.914062 2.59375 -11.210938 5.9375 -14.734375 C 9.289062 -18.253906 13.082031 -21.03125 17.3125 -23.0625 C 21.539062 -25.09375 25.296875 -25.703125 28.578125 -24.890625 C 31.035156 -24.285156 32.050781 -23.117188 31.625 -21.390625 C 31.570312 -21.171875 31.425781 -20.789062 31.1875 -20.25 C 30.820312 -21.238281 29.863281 -21.925781 28.3125 -22.3125 C 25.519531 -23 22.484375 -22.335938 19.203125 -20.328125 C 15.929688 -18.328125 13.03125 -15.742188 10.5 -12.578125 C 7.976562 -9.421875 6.4375 -6.695312 5.875 -4.40625 C 5.570312 -3.1875 5.597656 -2.144531 5.953125 -1.28125 C 6.304688 -0.414062 6.957031 0.128906 7.90625 0.359375 C 9.40625 0.722656 11.476562 0.210938 14.125 -1.171875 C 16.78125 -2.566406 19.65625 -4.742188 22.75 -7.703125 C 25.84375 -10.660156 28.804688 -14.160156 31.640625 -18.203125 C 38.765625 -28.390625 44.566406 -36.253906 49.046875 -41.796875 C 53.523438 -47.347656 56.769531 -49.878906 58.78125 -49.390625 C 59.21875 -49.273438 59.5625 -48.992188 59.8125 -48.546875 C 60.0625 -48.109375 60.113281 -47.609375 59.96875 -47.046875 C 59.769531 -46.222656 58.972656 -44.898438 57.578125 -43.078125 C 56.179688 -41.253906 53.953125 -38.472656 50.890625 -34.734375 C 44.648438 -27.171875 39.523438 -20.550781 35.515625 -14.875 C 31.515625 -9.207031 28.9375 -4.035156 27.78125 0.640625 C 27.332031 2.484375 27.125 3.75 27.15625 4.4375 C 27.195312 5.125 27.664062 5.578125 28.5625 5.796875 C 29.726562 6.085938 31.234375 5.910156 33.078125 5.265625 C 34.921875 4.628906 36.851562 3.566406 38.875 2.078125 C 40.90625 0.597656 42.78125 -1.222656 44.5 -3.390625 L 45.3125 -2.390625 C 43.5625 0.128906 41.484375 2.300781 39.078125 4.125 C 36.679688 5.957031 34.273438 7.269531 31.859375 8.0625 C 29.453125 8.863281 27.296875 9.03125 25.390625 8.5625 C 23.503906 8.09375 22.265625 7.132812 21.671875 5.6875 C 21.078125 4.25 20.992188 2.664062 21.421875 0.9375 C 21.890625 -0.96875 23.15625 -3.820312 25.21875 -7.625 C 21.21875 -3.632812 17.34375 -0.597656 13.59375 1.484375 C 9.851562 3.578125 6.757812 4.320312 4.3125 3.71875 Z M 4.3125 3.71875 "/></g></g><g style="fill:rgb(100%,34.118652%,34.118652%);fill-opacity:1;"><g transform="translate(571.810445, 418.289713)"><path style="stroke:none;" d="M 57.875 26.359375 C 49.789062 26.359375 42.769531 25.296875 36.8125 23.171875 C 30.851562 21.054688 25.65625 17.070312 21.21875 11.21875 C 22.226562 2.320312 26.21875 -14.144531 33.1875 -38.1875 C 40.15625 -62.226562 47.726562 -86.875 55.90625 -112.125 C 64.09375 -137.375 69.800781 -154.242188 73.03125 -162.734375 C 75.457031 -169.191406 78.84375 -175.703125 83.1875 -182.265625 C 87.53125 -188.835938 92.726562 -192.125 98.78125 -192.125 C 102.21875 -192.125 106.054688 -190.707031 110.296875 -187.875 C 98.179688 -160.195312 86.007812 -127.164062 73.78125 -88.78125 C 61.5625 -50.40625 52.21875 -16.367188 45.75 13.328125 C 49.1875 14.546875 54.238281 15.15625 60.90625 15.15625 C 81.71875 15.15625 101.363281 7.125 119.84375 -8.9375 C 138.332031 -25 153.128906 -44.898438 164.234375 -68.640625 C 175.347656 -92.378906 180.90625 -114.953125 180.90625 -136.359375 C 180.90625 -159.796875 175.046875 -177.222656 163.328125 -188.640625 C 151.617188 -200.054688 135.960938 -205.765625 116.359375 -205.765625 C 103.234375 -205.765625 91.414062 -203.390625 80.90625 -198.640625 C 70.40625 -193.890625 62.171875 -187.375 56.203125 -179.09375 C 50.242188 -170.8125 47.265625 -161.519531 47.265625 -151.21875 C 47.265625 -145.757812 48.175781 -140.910156 50 -136.671875 C 41.71875 -136.671875 35.601562 -138.4375 31.65625 -141.96875 C 27.71875 -145.5 25.75 -150.195312 25.75 -156.0625 C 25.75 -165.550781 30.296875 -175.144531 39.390625 -184.84375 C 48.484375 -194.539062 60.753906 -202.519531 76.203125 -208.78125 C 91.660156 -215.050781 108.378906 -218.1875 126.359375 -218.1875 C 154.242188 -218.1875 174.800781 -210.40625 188.03125 -194.84375 C 201.257812 -179.289062 207.875 -158.785156 207.875 -133.328125 C 207.875 -105.253906 200.601562 -78.941406 186.0625 -54.390625 C 171.519531 -29.847656 152.628906 -10.253906 129.390625 4.390625 C 106.160156 19.035156 82.320312 26.359375 57.875 26.359375 Z M 57.875 26.359375 "/></g></g><g style="fill:rgb(100%,34.118652%,34.118652%);fill-opacity:1;"><g transform="translate(779.964958, 418.289713)"><path style="stroke:none;" d="M 23.03125 9.09375 C 16.363281 9.09375 10.804688 5.960938 6.359375 -0.296875 C 1.921875 -6.566406 -0.296875 -13.941406 -0.296875 -22.421875 C -0.296875 -29.691406 1.316406 -38.78125 4.546875 -49.6875 C 7.773438 -60.601562 11.5625 -70.097656 15.90625 -78.171875 C 20.25 -86.253906 24.035156 -90.296875 27.265625 -90.296875 C 28.679688 -90.296875 30.851562 -89.539062 33.78125 -88.03125 C 36.71875 -86.519531 39.296875 -84.648438 41.515625 -82.421875 C 37.273438 -76.160156 32.878906 -67.171875 28.328125 -55.453125 C 23.785156 -43.734375 21.515625 -33.632812 21.515625 -25.15625 C 21.515625 -21.3125 22.066406 -17.316406 23.171875 -13.171875 C 24.285156 -9.035156 26.765625 -6.96875 30.609375 -6.96875 C 38.078125 -6.96875 47.015625 -15.300781 57.421875 -31.96875 C 67.828125 -48.632812 76.769531 -65.554688 84.25 -82.734375 C 96.363281 -80.710938 102.421875 -77.273438 102.421875 -72.421875 C 102.421875 -72.015625 101.207031 -69.085938 98.78125 -63.640625 C 94.539062 -53.734375 90.90625 -44.535156 87.875 -36.046875 C 84.84375 -27.566406 83.328125 -20.195312 83.328125 -13.9375 C 83.328125 -6.863281 86.054688 -3.328125 91.515625 -3.328125 C 95.753906 -3.328125 100.851562 -5.296875 106.8125 -9.234375 C 112.78125 -13.179688 118.894531 -18.835938 125.15625 -26.203125 C 131.414062 -33.578125 136.867188 -42.113281 141.515625 -51.8125 L 146.0625 -48.1875 C 141.613281 -37.269531 135.851562 -27.46875 128.78125 -18.78125 C 121.71875 -10.09375 114.09375 -3.273438 105.90625 1.671875 C 97.726562 6.617188 89.898438 9.09375 82.421875 9.09375 C 73.535156 9.09375 67.828125 6.015625 65.296875 -0.140625 C 62.773438 -6.304688 61.515625 -14.539062 61.515625 -24.84375 C 54.648438 -14.34375 48.1875 -6.0625 42.125 0 C 36.0625 6.0625 29.695312 9.09375 23.03125 9.09375 Z M 23.03125 9.09375 "/></g></g><g style="fill:rgb(100%,8.628845%,8.628845%);fill-opacity:1;"><g transform="translate(177.143308, 434.803589)"><path style="stroke:none;" d="M 68.359375 36.046875 C 51.234375 36.046875 38.457031 33.210938 30.03125 27.546875 C 21.613281 21.890625 17.265625 12.847656 16.984375 0.421875 C 16.984375 -2.347656 18.503906 -3.734375 21.546875 -3.734375 C 23.203125 -3.734375 27 -3.109375 32.9375 -1.859375 C 38.875 -0.617188 48.613281 0 62.15625 0 C 93.632812 0 122.148438 -4.347656 147.703125 -13.046875 C 173.253906 -21.753906 193.347656 -33.148438 207.984375 -47.234375 C 222.628906 -61.316406 229.953125 -76.234375 229.953125 -91.984375 C 229.953125 -111.316406 219.867188 -124.363281 199.703125 -131.125 C 179.535156 -137.894531 153.847656 -141.28125 122.640625 -141.28125 L 91.984375 -140.875 C 87.835938 -126.78125 84.175781 -113.796875 81 -101.921875 C 77.820312 -90.046875 74.988281 -79.6875 72.5 -70.84375 C 64.488281 -40.738281 58.96875 -20.4375 55.9375 -9.9375 C 47.644531 -9.9375 40.460938 -12.144531 34.390625 -16.5625 C 28.316406 -20.988281 25.28125 -26.378906 25.28125 -32.734375 C 25.28125 -37.703125 26.660156 -44.054688 29.421875 -51.796875 L 31.078125 -56.765625 L 36.453125 -73.34375 C 67.117188 -168.90625 93.363281 -237.816406 115.1875 -280.078125 C 101.375 -277.046875 87.144531 -271.523438 72.5 -263.515625 C 71.125 -262.960938 69.191406 -262.0625 66.703125 -260.8125 C 64.222656 -259.570312 62.429688 -258.953125 61.328125 -258.953125 C 58.554688 -258.953125 55.097656 -260.953125 50.953125 -264.953125 C 46.816406 -268.960938 44.75 -272.347656 44.75 -275.109375 C 63.8125 -282.847656 80.867188 -288.648438 95.921875 -292.515625 C 110.972656 -296.378906 128.71875 -298.3125 149.15625 -298.3125 C 176.5 -298.3125 200.664062 -293.613281 221.65625 -284.21875 C 242.65625 -274.832031 253.15625 -257.019531 253.15625 -230.78125 C 253.15625 -209.507812 244.796875 -192.585938 228.078125 -180.015625 C 211.367188 -167.453125 190.863281 -158.269531 166.5625 -152.46875 C 197.769531 -148.332031 220.414062 -139.910156 234.5 -127.203125 C 248.59375 -114.492188 255.640625 -100.679688 255.640625 -85.765625 C 255.640625 -60.628906 245.210938 -38.804688 224.359375 -20.296875 C 203.503906 -1.796875 178.367188 12.21875 148.953125 21.75 C 119.535156 31.28125 92.671875 36.046875 68.359375 36.046875 Z M 96.125 -156.609375 C 132.03125 -157.992188 161.929688 -164.832031 185.828125 -177.125 C 209.722656 -189.414062 221.671875 -208.40625 221.671875 -234.09375 C 221.671875 -267.238281 195.703125 -283.8125 143.765625 -283.8125 C 128.296875 -253.976562 112.414062 -211.578125 96.125 -156.609375 Z M 96.125 -156.609375 "/></g></g><g style="fill:rgb(100%,8.628845%,8.628845%);fill-opacity:1;"><g transform="translate(446.444733, 434.803589)"><path style="stroke:none;" d="M 82.03125 -174.4375 C 76.238281 -174.4375 71.335938 -175.816406 67.328125 -178.578125 C 63.328125 -181.335938 61.328125 -185.34375 61.328125 -190.59375 C 61.328125 -196.945312 64.847656 -202.539062 71.890625 -207.375 C 78.929688 -212.207031 86.457031 -214.625 94.46875 -214.625 C 106.34375 -214.625 112.28125 -209.515625 112.28125 -199.296875 C 112.28125 -193.492188 109.101562 -187.898438 102.75 -182.515625 C 96.394531 -177.128906 89.488281 -174.4375 82.03125 -174.4375 Z M 33.140625 12.4375 C 21.546875 12.4375 12.570312 8.984375 6.21875 2.078125 C -0.132812 -4.828125 -3.3125 -13.671875 -3.3125 -24.453125 C -3.3125 -35.492188 -0.207031 -50.472656 6 -69.390625 C 12.21875 -88.316406 20.09375 -104.960938 29.625 -119.328125 C 39.15625 -133.691406 48.753906 -140.875 58.421875 -140.875 C 62.015625 -140.875 64.984375 -139.835938 67.328125 -137.765625 C 69.671875 -135.691406 70.84375 -132.722656 70.84375 -128.859375 C 70.84375 -126.367188 69.738281 -122.984375 67.53125 -118.703125 C 65.320312 -114.421875 61.734375 -108.273438 56.765625 -100.265625 C 47.921875 -85.628906 40.941406 -72.71875 35.828125 -61.53125 C 30.722656 -50.34375 28.171875 -39.773438 28.171875 -29.828125 C 28.171875 -21.265625 29.691406 -15.460938 32.734375 -12.421875 C 35.773438 -9.390625 40.46875 -7.875 46.8125 -7.875 C 68.632812 -7.875 90.320312 -29.003906 111.875 -71.265625 L 118.078125 -64.640625 C 108.410156 -40.328125 96.117188 -21.398438 81.203125 -7.859375 C 66.285156 5.671875 50.265625 12.4375 33.140625 12.4375 Z M 33.140625 12.4375 "/></g></g><g style="fill:rgb(1.179504%,23.919678%,40.779114%);fill-opacity:1;"><g transform="translate(10.924962, 619.029253)"><path style="stroke:none;" d="M 27.609375 0.671875 C 23.253906 0.671875 19.289062 -0.160156 15.71875 -1.828125 C 12.144531 -3.503906 9.28125 -6.003906 7.125 -9.328125 C 4.976562 -12.660156 3.90625 -16.773438 3.90625 -21.671875 C 3.90625 -24.828125 4.453125 -27.789062 5.546875 -30.5625 C 6.648438 -33.34375 8.265625 -35.796875 10.390625 -37.921875 C 12.515625 -40.046875 15.101562 -41.707031 18.15625 -42.90625 C 21.207031 -44.101562 24.679688 -44.703125 28.578125 -44.703125 C 30.628906 -44.703125 32.804688 -44.5 35.109375 -44.09375 C 37.410156 -43.695312 39.457031 -43.125 41.25 -42.375 L 41.78125 -32.109375 L 38.40625 -31.8125 L 36.15625 -38.9375 C 35.207031 -39.582031 33.957031 -40.066406 32.40625 -40.390625 C 30.851562 -40.710938 29.351562 -40.875 27.90625 -40.875 C 24.15625 -40.875 21.09375 -40.0625 18.71875 -38.4375 C 16.34375 -36.8125 14.59375 -34.648438 13.46875 -31.953125 C 12.34375 -29.253906 11.78125 -26.28125 11.78125 -23.03125 C 11.78125 -18.78125 12.515625 -15.175781 13.984375 -12.21875 C 15.460938 -9.269531 17.460938 -7.046875 19.984375 -5.546875 C 22.515625 -4.046875 25.304688 -3.296875 28.359375 -3.296875 C 29.910156 -3.296875 31.347656 -3.46875 32.671875 -3.8125 C 33.992188 -4.164062 35.253906 -4.695312 36.453125 -5.40625 L 39.75 -12.453125 L 43.203125 -12.078125 L 41.109375 -2.625 C 39.359375 -1.769531 37.316406 -1.003906 34.984375 -0.328125 C 32.660156 0.335938 30.203125 0.671875 27.609375 0.671875 Z M 27.609375 0.671875 "/></g></g><g style="fill:rgb(1.179504%,23.919678%,40.779114%);fill-opacity:1;"><g transform="translate(76.127191, 619.029253)"><path style="stroke:none;" d="M 26.171875 0.671875 C 21.828125 0.671875 17.96875 -0.273438 14.59375 -2.171875 C 11.21875 -4.078125 8.578125 -6.726562 6.671875 -10.125 C 4.773438 -13.53125 3.828125 -17.429688 3.828125 -21.828125 C 3.828125 -26.222656 4.789062 -30.144531 6.71875 -33.59375 C 8.644531 -37.050781 11.316406 -39.765625 14.734375 -41.734375 C 18.160156 -43.710938 22.023438 -44.703125 26.328125 -44.703125 C 30.523438 -44.703125 34.222656 -43.75 37.421875 -41.84375 C 40.628906 -39.945312 43.144531 -37.320312 44.96875 -33.96875 C 46.789062 -30.625 47.703125 -26.753906 47.703125 -22.359375 C 47.703125 -19.003906 47.125 -15.925781 45.96875 -13.125 C 44.820312 -10.320312 43.25 -7.882812 41.25 -5.8125 C 39.25 -3.738281 36.960938 -2.140625 34.390625 -1.015625 C 31.816406 0.109375 29.078125 0.671875 26.171875 0.671875 Z M 26.859375 -3.375 C 29.609375 -3.375 31.96875 -4.070312 33.9375 -5.46875 C 35.914062 -6.875 37.441406 -8.863281 38.515625 -11.4375 C 39.585938 -14.007812 40.125 -17.046875 40.125 -20.546875 C 40.125 -24.597656 39.5 -28.148438 38.25 -31.203125 C 37 -34.253906 35.285156 -36.640625 33.109375 -38.359375 C 30.941406 -40.085938 28.378906 -40.953125 25.421875 -40.953125 C 21.171875 -40.953125 17.804688 -39.363281 15.328125 -36.1875 C 12.859375 -33.019531 11.625 -28.707031 11.625 -23.25 C 11.625 -19.351562 12.273438 -15.914062 13.578125 -12.9375 C 14.878906 -9.957031 16.675781 -7.617188 18.96875 -5.921875 C 21.269531 -4.222656 23.898438 -3.375 26.859375 -3.375 Z M 38.1875 -50.203125 L 35.625 -48.40625 L 23.25 -55.234375 L 27.75 -55.234375 L 15.375 -48.40625 L 12.828125 -50.203125 L 22.734375 -58.234375 L 28.28125 -58.234375 Z M 38.1875 -50.203125 "/></g></g><g style="fill:rgb(1.179504%,23.919678%,40.779114%);fill-opacity:1;"><g transform="translate(147.480454, 619.029253)"><path style="stroke:none;" d="M 37.875 -10.734375 L 37.875 -27.53125 C 37.875 -30.476562 37.863281 -32.835938 37.84375 -34.609375 C 37.820312 -36.390625 37.769531 -37.71875 37.6875 -38.59375 C 37.613281 -39.46875 37.550781 -39.976562 37.5 -40.125 L 32.40625 -41.1875 L 32.625 -44.03125 L 46.875 -44.03125 L 47.109375 -41.1875 L 42.453125 -40.125 C 42.453125 -39.976562 42.414062 -39.46875 42.34375 -38.59375 C 42.269531 -37.71875 42.207031 -36.378906 42.15625 -34.578125 C 42.101562 -32.773438 42.078125 -30.425781 42.078125 -27.53125 L 42.078125 -9.671875 C 42.078125 -8.078125 42.078125 -6.453125 42.078125 -4.796875 C 42.078125 -3.148438 42.101562 -1.453125 42.15625 0.296875 L 38.78125 0.296875 L 11.171875 -36.828125 L 12.828125 -36.828125 L 12.828125 -16.734375 C 12.828125 -13.734375 12.851562 -11.332031 12.90625 -9.53125 C 12.957031 -7.726562 13.019531 -6.390625 13.09375 -5.515625 C 13.164062 -4.640625 13.226562 -4.101562 13.28125 -3.90625 L 18.375 -2.84375 L 18.15625 0 L 3.75 0 L 3.53125 -2.84375 L 8.09375 -3.90625 C 8.195312 -4.101562 8.273438 -4.625 8.328125 -5.46875 C 8.378906 -6.320312 8.425781 -7.660156 8.46875 -9.484375 C 8.519531 -11.316406 8.546875 -13.734375 8.546875 -16.734375 L 8.546875 -29.5625 C 8.546875 -31.8125 8.519531 -33.660156 8.46875 -35.109375 C 8.425781 -36.554688 8.378906 -37.679688 8.328125 -38.484375 C 8.273438 -39.285156 8.195312 -39.832031 8.09375 -40.125 L 3.53125 -41.1875 L 3.75 -44.03125 L 14.03125 -44.03125 L 39.234375 -10.734375 Z M 37.875 -10.734375 "/></g></g><g style="fill:rgb(1.179504%,23.919678%,40.779114%);fill-opacity:1;"><g transform="translate(217.933573, 619.029253)"><path style="stroke:none;" d="M 28.046875 0.671875 C 23.546875 0.671875 19.457031 -0.160156 15.78125 -1.828125 C 12.113281 -3.503906 9.203125 -5.992188 7.046875 -9.296875 C 4.898438 -12.597656 3.828125 -16.703125 3.828125 -21.609375 C 3.828125 -24.753906 4.390625 -27.710938 5.515625 -30.484375 C 6.640625 -33.265625 8.265625 -35.726562 10.390625 -37.875 C 12.515625 -40.03125 15.113281 -41.707031 18.1875 -42.90625 C 21.257812 -44.101562 24.773438 -44.703125 28.734375 -44.703125 C 30.828125 -44.703125 33.035156 -44.5 35.359375 -44.09375 C 37.691406 -43.695312 39.707031 -43.125 41.40625 -42.375 L 41.859375 -32.5625 L 38.5625 -32.25 L 36.375 -38.9375 C 35.425781 -39.632812 34.148438 -40.128906 32.546875 -40.421875 C 30.953125 -40.722656 29.476562 -40.875 28.125 -40.875 C 24.28125 -40.875 21.144531 -40.0625 18.71875 -38.4375 C 16.289062 -36.8125 14.5 -34.648438 13.34375 -31.953125 C 12.195312 -29.253906 11.625 -26.28125 11.625 -23.03125 C 11.625 -18.78125 12.382812 -15.164062 13.90625 -12.1875 C 15.4375 -9.207031 17.5 -6.96875 20.09375 -5.46875 C 22.695312 -3.96875 25.625 -3.21875 28.875 -3.21875 C 30.28125 -3.21875 31.84375 -3.414062 33.5625 -3.8125 C 35.289062 -4.21875 36.832031 -4.921875 38.1875 -5.921875 L 36.375 -1.71875 L 36.375 -9.609375 C 36.375 -11.253906 36.347656 -12.703125 36.296875 -13.953125 C 36.253906 -15.203125 36.179688 -16.148438 36.078125 -16.796875 L 30.984375 -17.625 L 31.125 -20.625 L 45.75 -20.625 L 45.90625 -17.78125 L 42.609375 -16.875 C 42.609375 -16.625 42.609375 -16.023438 42.609375 -15.078125 C 42.609375 -14.128906 42.609375 -12.976562 42.609375 -11.625 C 42.609375 -9.875 42.628906 -8.398438 42.671875 -7.203125 C 42.722656 -6.003906 42.773438 -4.753906 42.828125 -3.453125 C 40.878906 -2.148438 38.539062 -1.132812 35.8125 -0.40625 C 33.09375 0.3125 30.503906 0.671875 28.046875 0.671875 Z M 28.046875 0.671875 "/></g></g><g style="fill:rgb(1.179504%,23.919678%,40.779114%);fill-opacity:1;"><g transform="translate(286.436348, 619.029253)"><path style="stroke:none;" d=""/></g></g><g style="fill:rgb(1.179504%,23.919678%,40.779114%);fill-opacity:1;"><g transform="translate(320.733388, 619.029253)"><path style="stroke:none;" d="M 37.875 -10.734375 L 37.875 -27.53125 C 37.875 -30.476562 37.863281 -32.835938 37.84375 -34.609375 C 37.820312 -36.390625 37.769531 -37.71875 37.6875 -38.59375 C 37.613281 -39.46875 37.550781 -39.976562 37.5 -40.125 L 32.40625 -41.1875 L 32.625 -44.03125 L 46.875 -44.03125 L 47.109375 -41.1875 L 42.453125 -40.125 C 42.453125 -39.976562 42.414062 -39.46875 42.34375 -38.59375 C 42.269531 -37.71875 42.207031 -36.378906 42.15625 -34.578125 C 42.101562 -32.773438 42.078125 -30.425781 42.078125 -27.53125 L 42.078125 -9.671875 C 42.078125 -8.078125 42.078125 -6.453125 42.078125 -4.796875 C 42.078125 -3.148438 42.101562 -1.453125 42.15625 0.296875 L 38.78125 0.296875 L 11.171875 -36.828125 L 12.828125 -36.828125 L 12.828125 -16.734375 C 12.828125 -13.734375 12.851562 -11.332031 12.90625 -9.53125 C 12.957031 -7.726562 13.019531 -6.390625 13.09375 -5.515625 C 13.164062 -4.640625 13.226562 -4.101562 13.28125 -3.90625 L 18.375 -2.84375 L 18.15625 0 L 3.75 0 L 3.53125 -2.84375 L 8.09375 -3.90625 C 8.195312 -4.101562 8.273438 -4.625 8.328125 -5.46875 C 8.378906 -6.320312 8.425781 -7.660156 8.46875 -9.484375 C 8.519531 -11.316406 8.546875 -13.734375 8.546875 -16.734375 L 8.546875 -29.5625 C 8.546875 -31.8125 8.519531 -33.660156 8.46875 -35.109375 C 8.425781 -36.554688 8.378906 -37.679688 8.328125 -38.484375 C 8.273438 -39.285156 8.195312 -39.832031 8.09375 -40.125 L 3.53125 -41.1875 L 3.75 -44.03125 L 14.03125 -44.03125 L 39.234375 -10.734375 Z M 37.875 -10.734375 "/></g></g><g style="fill:rgb(1.179504%,23.919678%,40.779114%);fill-opacity:1;"><g transform="translate(391.186492, 619.029253)"><path style="stroke:none;" d="M 28.046875 0.671875 C 23.546875 0.671875 19.457031 -0.160156 15.78125 -1.828125 C 12.113281 -3.503906 9.203125 -5.992188 7.046875 -9.296875 C 4.898438 -12.597656 3.828125 -16.703125 3.828125 -21.609375 C 3.828125 -24.753906 4.390625 -27.710938 5.515625 -30.484375 C 6.640625 -33.265625 8.265625 -35.726562 10.390625 -37.875 C 12.515625 -40.03125 15.113281 -41.707031 18.1875 -42.90625 C 21.257812 -44.101562 24.773438 -44.703125 28.734375 -44.703125 C 30.828125 -44.703125 33.035156 -44.5 35.359375 -44.09375 C 37.691406 -43.695312 39.707031 -43.125 41.40625 -42.375 L 41.859375 -32.5625 L 38.5625 -32.25 L 36.375 -38.9375 C 35.425781 -39.632812 34.148438 -40.128906 32.546875 -40.421875 C 30.953125 -40.722656 29.476562 -40.875 28.125 -40.875 C 24.28125 -40.875 21.144531 -40.0625 18.71875 -38.4375 C 16.289062 -36.8125 14.5 -34.648438 13.34375 -31.953125 C 12.195312 -29.253906 11.625 -26.28125 11.625 -23.03125 C 11.625 -18.78125 12.382812 -15.164062 13.90625 -12.1875 C 15.4375 -9.207031 17.5 -6.96875 20.09375 -5.46875 C 22.695312 -3.96875 25.625 -3.21875 28.875 -3.21875 C 30.28125 -3.21875 31.84375 -3.414062 33.5625 -3.8125 C 35.289062 -4.21875 36.832031 -4.921875 38.1875 -5.921875 L 36.375 -1.71875 L 36.375 -9.609375 C 36.375 -11.253906 36.347656 -12.703125 36.296875 -13.953125 C 36.253906 -15.203125 36.179688 -16.148438 36.078125 -16.796875 L 30.984375 -17.625 L 31.125 -20.625 L 45.75 -20.625 L 45.90625 -17.78125 L 42.609375 -16.875 C 42.609375 -16.625 42.609375 -16.023438 42.609375 -15.078125 C 42.609375 -14.128906 42.609375 -12.976562 42.609375 -11.625 C 42.609375 -9.875 42.628906 -8.398438 42.671875 -7.203125 C 42.722656 -6.003906 42.773438 -4.753906 42.828125 -3.453125 C 40.878906 -2.148438 38.539062 -1.132812 35.8125 -0.40625 C 33.09375 0.3125 30.503906 0.671875 28.046875 0.671875 Z M 28.046875 0.671875 "/></g></g><g style="fill:rgb(1.179504%,23.919678%,40.779114%);fill-opacity:1;"><g transform="translate(459.689267, 619.029253)"><path style="stroke:none;" d="M 30.6875 0 L 30.53125 -2.84375 L 35.109375 -3.90625 C 35.203125 -4.101562 35.285156 -4.613281 35.359375 -5.4375 C 35.441406 -6.257812 35.492188 -7.445312 35.515625 -9 C 35.546875 -10.550781 35.5625 -12.523438 35.5625 -14.921875 L 35.5625 -29.03125 C 35.5625 -31.53125 35.546875 -33.554688 35.515625 -35.109375 C 35.492188 -36.660156 35.441406 -37.847656 35.359375 -38.671875 C 35.285156 -39.492188 35.203125 -39.976562 35.109375 -40.125 L 30.53125 -41.1875 L 30.6875 -44.03125 L 46.8125 -44.03125 L 47.03125 -41.1875 L 42.375 -40.125 C 42.28125 -39.976562 42.207031 -39.492188 42.15625 -38.671875 C 42.101562 -37.847656 42.050781 -36.660156 42 -35.109375 C 41.957031 -33.554688 41.9375 -31.53125 41.9375 -29.03125 L 41.9375 -14.921875 C 41.9375 -12.523438 41.957031 -10.550781 42 -9 C 42.050781 -7.445312 42.101562 -6.257812 42.15625 -5.4375 C 42.207031 -4.613281 42.28125 -4.101562 42.375 -3.90625 L 47.03125 -2.84375 L 46.8125 0 Z M 3.671875 0 L 3.453125 -2.84375 L 8.09375 -3.90625 C 8.195312 -4.15625 8.257812 -4.726562 8.28125 -5.625 C 8.3125 -6.519531 8.335938 -7.742188 8.359375 -9.296875 C 8.390625 -10.847656 8.40625 -12.722656 8.40625 -14.921875 L 8.40625 -29.03125 C 8.40625 -31.28125 8.390625 -33.191406 8.359375 -34.765625 C 8.335938 -36.335938 8.3125 -37.585938 8.28125 -38.515625 C 8.257812 -39.441406 8.195312 -39.976562 8.09375 -40.125 L 3.453125 -41.1875 L 3.671875 -44.03125 L 19.65625 -44.03125 L 19.796875 -41.1875 L 15.234375 -40.125 C 15.128906 -39.976562 15.039062 -39.492188 14.96875 -38.671875 C 14.894531 -37.847656 14.84375 -36.660156 14.8125 -35.109375 C 14.789062 -33.554688 14.78125 -31.53125 14.78125 -29.03125 L 14.78125 -14.921875 C 14.78125 -12.523438 14.789062 -10.550781 14.8125 -9 C 14.84375 -7.445312 14.894531 -6.257812 14.96875 -5.4375 C 15.039062 -4.613281 15.128906 -4.101562 15.234375 -3.90625 L 19.796875 -2.84375 L 19.65625 0 Z M 13.875 -20.40625 L 13.875 -24.828125 C 14.820312 -24.773438 16.269531 -24.722656 18.21875 -24.671875 C 20.175781 -24.628906 22.53125 -24.609375 25.28125 -24.609375 C 28.03125 -24.609375 30.34375 -24.628906 32.21875 -24.671875 C 34.09375 -24.722656 35.476562 -24.773438 36.375 -24.828125 L 36.375 -20.40625 C 35.28125 -20.550781 33.859375 -20.632812 32.109375 -20.65625 C 30.359375 -20.6875 28.082031 -20.703125 25.28125 -20.703125 C 22.375 -20.703125 20.019531 -20.6875 18.21875 -20.65625 C 16.425781 -20.632812 14.976562 -20.550781 13.875 -20.40625 Z M 13.875 -20.40625 "/></g></g><g style="fill:rgb(1.179504%,23.919678%,40.779114%);fill-opacity:1;"><g transform="translate(529.992374, 619.029253)"><path style="stroke:none;" d="M 36.453125 0.375 C 35.003906 0.226562 33.71875 0.128906 32.59375 0.078125 C 31.46875 0.0234375 30.40625 0 29.40625 0 L 3.671875 0 L 3.453125 -2.84375 L 8.09375 -3.90625 C 8.144531 -4.15625 8.195312 -4.726562 8.25 -5.625 C 8.300781 -6.519531 8.335938 -7.742188 8.359375 -9.296875 C 8.390625 -10.847656 8.40625 -12.722656 8.40625 -14.921875 L 8.40625 -29.03125 C 8.40625 -31.28125 8.390625 -33.191406 8.359375 -34.765625 C 8.335938 -36.335938 8.300781 -37.570312 8.25 -38.46875 C 8.195312 -39.375 8.144531 -39.925781 8.09375 -40.125 L 3.453125 -41.1875 L 3.671875 -44.03125 L 27.75 -44.03125 C 28.457031 -44.03125 29.207031 -44.03125 30 -44.03125 C 30.800781 -44.03125 31.640625 -44.066406 32.515625 -44.140625 C 33.390625 -44.210938 34.300781 -44.273438 35.25 -44.328125 L 36.75 -34.4375 L 33.375 -33.90625 L 30.90625 -40.203125 C 30.507812 -40.304688 30.0625 -40.367188 29.5625 -40.390625 C 29.0625 -40.421875 28.535156 -40.4375 27.984375 -40.4375 L 19.5 -40.4375 C 18.550781 -40.4375 17.710938 -40.421875 16.984375 -40.390625 C 16.265625 -40.367188 15.554688 -40.304688 14.859375 -40.203125 C 14.859375 -40.003906 14.84375 -39.441406 14.8125 -38.515625 C 14.789062 -37.585938 14.765625 -36.523438 14.734375 -35.328125 C 14.710938 -34.128906 14.703125 -32.929688 14.703125 -31.734375 L 14.703125 -11.484375 C 14.703125 -10.484375 14.710938 -9.46875 14.734375 -8.4375 C 14.765625 -7.414062 14.789062 -6.515625 14.8125 -5.734375 C 14.84375 -4.960938 14.859375 -4.398438 14.859375 -4.046875 C 15.609375 -3.992188 16.359375 -3.941406 17.109375 -3.890625 C 17.859375 -3.847656 18.707031 -3.828125 19.65625 -3.828125 L 26.921875 -3.828125 C 28.023438 -3.828125 28.925781 -3.835938 29.625 -3.859375 C 30.332031 -3.890625 30.882812 -3.925781 31.28125 -3.96875 C 31.675781 -4.019531 32 -4.070312 32.25 -4.125 L 36.15625 -11.25 L 39.53125 -10.578125 Z M 28.125 -15.375 L 27.234375 -20.484375 C 26.984375 -20.578125 26.554688 -20.648438 25.953125 -20.703125 C 25.347656 -20.753906 24.625 -20.78125 23.78125 -20.78125 L 18.078125 -20.78125 C 17.429688 -20.78125 16.71875 -20.753906 15.9375 -20.703125 C 15.164062 -20.648438 14.378906 -20.597656 13.578125 -20.546875 L 13.578125 -24.671875 C 14.378906 -24.628906 15.164062 -24.59375 15.9375 -24.5625 C 16.71875 -24.539062 17.429688 -24.53125 18.078125 -24.53125 L 23.78125 -24.53125 C 24.625 -24.53125 25.347656 -24.539062 25.953125 -24.5625 C 26.554688 -24.59375 26.984375 -24.65625 27.234375 -24.75 L 28.125 -29.9375 L 31.359375 -29.9375 L 31.359375 -15.375 Z M 21.578125 14.921875 C 20.472656 14.921875 19.519531 14.554688 18.71875 13.828125 C 17.925781 13.109375 17.53125 12.203125 17.53125 11.109375 C 17.53125 10.003906 17.925781 9.085938 18.71875 8.359375 C 19.519531 7.640625 20.472656 7.28125 21.578125 7.28125 C 22.679688 7.28125 23.609375 7.640625 24.359375 8.359375 C 25.109375 9.085938 25.484375 10.003906 25.484375 11.109375 C 25.484375 12.203125 25.109375 13.109375 24.359375 13.828125 C 23.609375 14.554688 22.679688 14.921875 21.578125 14.921875 Z M 34.1875 -50.203125 L 31.625 -48.40625 L 19.25 -55.234375 L 23.75 -55.234375 L 11.375 -48.40625 L 8.828125 -50.203125 L 18.734375 -58.234375 L 24.28125 -58.234375 Z M 34.1875 -50.203125 "/></g></g><g style="fill:rgb(1.179504%,23.919678%,40.779114%);fill-opacity:1;"><g transform="translate(591.593993, 619.029253)"><path style="stroke:none;" d=""/></g></g><g style="fill:rgb(1.179504%,23.919678%,40.779114%);fill-opacity:1;"><g transform="translate(625.891033, 619.029253)"><path style="stroke:none;" d="M 18.75 0.59375 C 15.101562 0.59375 12.101562 0.046875 9.75 -1.046875 C 7.394531 -2.148438 5.644531 -3.578125 4.5 -5.328125 C 3.351562 -7.078125 2.78125 -8.976562 2.78125 -11.03125 C 2.78125 -12.675781 3.191406 -14.375 4.015625 -16.125 C 4.835938 -17.875 6.285156 -19.632812 8.359375 -21.40625 C 10.441406 -23.1875 13.359375 -24.898438 17.109375 -26.546875 C 20.054688 -28.054688 22.40625 -29.535156 24.15625 -30.984375 C 25.90625 -32.429688 27.164062 -33.90625 27.9375 -35.40625 C 28.71875 -36.90625 29.109375 -38.503906 29.109375 -40.203125 C 29.109375 -42.398438 28.582031 -44.050781 27.53125 -45.15625 C 26.476562 -46.257812 25.203125 -46.8125 23.703125 -46.8125 C 21.847656 -46.8125 20.285156 -46.109375 19.015625 -44.703125 C 17.742188 -43.304688 17.109375 -41.257812 17.109375 -38.5625 C 17.109375 -36.957031 17.296875 -35.40625 17.671875 -33.90625 C 18.046875 -32.40625 18.617188 -30.890625 19.390625 -29.359375 C 20.160156 -27.835938 21.109375 -26.226562 22.234375 -24.53125 C 23.359375 -22.832031 24.648438 -20.957031 26.109375 -18.90625 C 28.609375 -15.457031 30.957031 -12.617188 33.15625 -10.390625 C 35.351562 -8.160156 37.5 -6.507812 39.59375 -5.4375 C 41.695312 -4.363281 43.800781 -3.828125 45.90625 -3.828125 C 47.257812 -3.828125 48.472656 -4.015625 49.546875 -4.390625 C 50.617188 -4.765625 51.753906 -5.351562 52.953125 -6.15625 L 54.3125 -4.28125 C 53.113281 -2.675781 51.597656 -1.460938 49.765625 -0.640625 C 47.941406 0.179688 45.878906 0.59375 43.578125 0.59375 C 40.878906 0.59375 38.328125 0.03125 35.921875 -1.09375 C 33.523438 -2.21875 31.148438 -3.925781 28.796875 -6.21875 C 26.453125 -8.519531 23.976562 -11.421875 21.375 -14.921875 C 19.070312 -18.023438 17.171875 -20.773438 15.671875 -23.171875 C 14.171875 -25.578125 13.035156 -27.878906 12.265625 -30.078125 C 11.492188 -32.273438 11.109375 -34.578125 11.109375 -36.984375 C 11.109375 -39.429688 11.65625 -41.640625 12.75 -43.609375 C 13.851562 -45.585938 15.363281 -47.164062 17.28125 -48.34375 C 19.207031 -49.519531 21.421875 -50.109375 23.921875 -50.109375 C 27.078125 -50.109375 29.640625 -49.269531 31.609375 -47.59375 C 33.585938 -45.914062 34.578125 -43.601562 34.578125 -40.65625 C 34.578125 -38.65625 34.085938 -36.753906 33.109375 -34.953125 C 32.140625 -33.148438 30.476562 -31.359375 28.125 -29.578125 C 25.78125 -27.804688 22.554688 -25.875 18.453125 -23.78125 C 15.097656 -22.03125 12.796875 -20.265625 11.546875 -18.484375 C 10.296875 -16.710938 9.671875 -14.726562 9.671875 -12.53125 C 9.671875 -10.832031 10.117188 -9.304688 11.015625 -7.953125 C 11.921875 -6.597656 13.210938 -5.554688 14.890625 -4.828125 C 16.566406 -4.109375 18.503906 -3.75 20.703125 -3.75 C 23.398438 -3.75 25.847656 -4.285156 28.046875 -5.359375 C 30.253906 -6.429688 32.269531 -8.242188 34.09375 -10.796875 C 35.914062 -13.347656 37.628906 -16.773438 39.234375 -21.078125 L 33.984375 -21.90625 L 34.125 -24.75 L 49.8125 -24.828125 L 49.953125 -21.984375 L 44.703125 -21.078125 C 42.253906 -16.328125 39.753906 -12.335938 37.203125 -9.109375 C 34.648438 -5.890625 31.875 -3.46875 28.875 -1.84375 C 25.875 -0.21875 22.5 0.59375 18.75 0.59375 Z M 18.75 0.59375 "/></g></g><g style="fill:rgb(1.179504%,23.919678%,40.779114%);fill-opacity:1;"><g transform="translate(699.269625, 619.029253)"><path style="stroke:none;" d=""/></g></g><g style="fill:rgb(1.179504%,23.919678%,40.779114%);fill-opacity:1;"><g transform="translate(733.566665, 619.029253)"><path style="stroke:none;" d="M 3.671875 -44.03125 L 21.828125 -44.03125 C 29.734375 -44.03125 35.894531 -42.140625 40.3125 -38.359375 C 44.738281 -34.585938 46.953125 -29.300781 46.953125 -22.5 C 46.953125 -18.101562 45.925781 -14.203125 43.875 -10.796875 C 41.832031 -7.398438 38.984375 -4.75 35.328125 -2.84375 C 31.679688 -0.945312 27.484375 0 22.734375 0 L 3.671875 0 L 3.53125 -2.84375 L 8.09375 -3.90625 C 8.195312 -4.351562 8.285156 -5.625 8.359375 -7.71875 C 8.429688 -9.820312 8.46875 -12.222656 8.46875 -14.921875 L 8.46875 -29.03125 C 8.46875 -32.03125 8.429688 -34.554688 8.359375 -36.609375 C 8.285156 -38.660156 8.195312 -39.832031 8.09375 -40.125 L 3.53125 -41.1875 Z M 15 -39.984375 C 15 -39.484375 14.984375 -38.84375 14.953125 -38.0625 C 14.929688 -37.289062 14.910156 -36.203125 14.890625 -34.796875 C 14.867188 -33.398438 14.859375 -31.476562 14.859375 -29.03125 L 14.859375 -14.921875 C 14.859375 -13.421875 14.867188 -12.007812 14.890625 -10.6875 C 14.910156 -9.363281 14.957031 -8.175781 15.03125 -7.125 C 15.113281 -6.070312 15.179688 -5.195312 15.234375 -4.5 C 16.828125 -4.300781 18.257812 -4.140625 19.53125 -4.015625 C 20.8125 -3.890625 22.050781 -3.828125 23.25 -3.828125 C 28.550781 -3.828125 32.578125 -5.238281 35.328125 -8.0625 C 38.078125 -10.882812 39.453125 -14.972656 39.453125 -20.328125 C 39.453125 -23.578125 39.050781 -26.453125 38.25 -28.953125 C 37.457031 -31.453125 36.269531 -33.5625 34.6875 -35.28125 C 33.113281 -37.007812 31.1875 -38.3125 28.90625 -39.1875 C 26.632812 -40.0625 24 -40.5 21 -40.5 C 20.101562 -40.5 19.15625 -40.460938 18.15625 -40.390625 C 17.15625 -40.316406 16.101562 -40.179688 15 -39.984375 Z M 3.203125 -20.578125 L 3.203125 -24.328125 L 27.5 -24.328125 L 27.5 -20.578125 Z M 3.203125 -20.578125 "/></g></g><g style="fill:rgb(1.179504%,23.919678%,40.779114%);fill-opacity:1;"><g transform="translate(804.619869, 619.029253)"><path style="stroke:none;" d="M 49.953125 -48.828125 C 49.953125 -47.429688 49.414062 -45.941406 48.34375 -44.359375 C 47.269531 -42.785156 45.671875 -41.550781 43.546875 -40.65625 C 41.421875 -39.757812 38.757812 -39.5625 35.5625 -40.0625 L 37.875 -41.625 C 40.925781 -39.726562 43.328125 -37.117188 45.078125 -33.796875 C 46.828125 -30.472656 47.703125 -26.660156 47.703125 -22.359375 C 47.703125 -19.003906 47.125 -15.925781 45.96875 -13.125 C 44.820312 -10.320312 43.25 -7.882812 41.25 -5.8125 C 39.25 -3.738281 36.960938 -2.140625 34.390625 -1.015625 C 31.816406 0.109375 29.078125 0.671875 26.171875 0.671875 C 21.828125 0.671875 17.96875 -0.273438 14.59375 -2.171875 C 11.21875 -4.078125 8.578125 -6.726562 6.671875 -10.125 C 4.773438 -13.53125 3.828125 -17.429688 3.828125 -21.828125 C 3.828125 -26.222656 4.800781 -30.144531 6.75 -33.59375 C 8.695312 -37.050781 11.394531 -39.765625 14.84375 -41.734375 C 18.300781 -43.710938 22.203125 -44.703125 26.546875 -44.703125 C 28.898438 -44.703125 30.960938 -44.488281 32.734375 -44.0625 C 34.515625 -43.644531 36.128906 -43.4375 37.578125 -43.4375 C 39.234375 -43.4375 40.535156 -43.882812 41.484375 -44.78125 C 42.429688 -45.675781 42.929688 -47.226562 42.984375 -49.4375 L 43.125 -53.265625 C 44.425781 -53.515625 45.578125 -53.523438 46.578125 -53.296875 C 47.578125 -53.066406 48.390625 -52.601562 49.015625 -51.90625 C 49.640625 -51.207031 49.953125 -50.179688 49.953125 -48.828125 Z M 26.859375 -3.375 C 29.609375 -3.375 31.957031 -4.070312 33.90625 -5.46875 C 35.851562 -6.875 37.375 -8.863281 38.46875 -11.4375 C 39.570312 -14.007812 40.125 -17.046875 40.125 -20.546875 C 40.125 -24.597656 39.5 -28.148438 38.25 -31.203125 C 37 -34.253906 35.285156 -36.640625 33.109375 -38.359375 C 30.941406 -40.085938 28.378906 -40.953125 25.421875 -40.953125 C 21.171875 -40.953125 17.804688 -39.363281 15.328125 -36.1875 C 12.859375 -33.019531 11.625 -28.707031 11.625 -23.25 C 11.625 -19.351562 12.273438 -15.914062 13.578125 -12.9375 C 14.878906 -9.957031 16.675781 -7.617188 18.96875 -5.921875 C 21.269531 -4.222656 23.898438 -3.375 26.859375 -3.375 Z M 23.921875 -48.40625 L 15.828125 -57.5625 L 21.75 -59.28125 L 27.078125 -49.453125 Z M 23.921875 -48.40625 "/></g></g><g style="fill:rgb(1.179504%,23.919678%,40.779114%);fill-opacity:1;"><g transform="translate(875.973124, 619.029253)"><path style="stroke:none;" d="M 3.671875 0 L 3.53125 -2.84375 L 8.09375 -3.90625 C 8.195312 -4.15625 8.257812 -4.726562 8.28125 -5.625 C 8.3125 -6.519531 8.335938 -7.742188 8.359375 -9.296875 C 8.390625 -10.847656 8.40625 -12.722656 8.40625 -14.921875 L 8.40625 -29.03125 C 8.40625 -31.28125 8.390625 -33.191406 8.359375 -34.765625 C 8.335938 -36.335938 8.3125 -37.585938 8.28125 -38.515625 C 8.257812 -39.441406 8.195312 -39.976562 8.09375 -40.125 L 3.53125 -41.1875 L 3.671875 -44.03125 L 19.65625 -44.03125 L 19.796875 -41.1875 L 15.234375 -40.125 C 15.128906 -39.976562 15.039062 -39.492188 14.96875 -38.671875 C 14.894531 -37.847656 14.84375 -36.660156 14.8125 -35.109375 C 14.789062 -33.554688 14.78125 -31.53125 14.78125 -29.03125 L 14.78125 -14.921875 C 14.78125 -12.523438 14.789062 -10.550781 14.8125 -9 C 14.84375 -7.445312 14.894531 -6.257812 14.96875 -5.4375 C 15.039062 -4.613281 15.128906 -4.101562 15.234375 -3.90625 L 19.796875 -2.84375 L 19.65625 0 Z M 3.671875 0 "/></g></g><g style="fill:rgb(1.179504%,23.919678%,40.779114%);fill-opacity:1;"><g transform="translate(919.121649, 619.029253)"><path style="stroke:none;" d=""/></g></g><g style="fill:rgb(1.179504%,23.919678%,40.779114%);fill-opacity:1;"><g transform="translate(953.418689, 619.029253)"><path style="stroke:none;" d="M 16.875 0.671875 C 14.675781 0.671875 12.425781 0.398438 10.125 -0.140625 C 7.820312 -0.691406 5.921875 -1.394531 4.421875 -2.25 L 4.046875 -11.921875 L 7.28125 -12.234375 L 9.375 -5.546875 C 10.570312 -4.742188 11.910156 -4.128906 13.390625 -3.703125 C 14.867188 -3.285156 16.40625 -3.078125 18 -3.078125 C 20.445312 -3.078125 22.421875 -3.675781 23.921875 -4.875 C 25.421875 -6.070312 26.171875 -7.695312 26.171875 -9.75 C 26.171875 -11.5 25.644531 -12.960938 24.59375 -14.140625 C 23.550781 -15.316406 22.191406 -16.34375 20.515625 -17.21875 C 18.835938 -18.09375 17.0625 -18.941406 15.1875 -19.765625 C 13.3125 -20.585938 11.546875 -21.535156 9.890625 -22.609375 C 8.242188 -23.691406 6.882812 -25.019531 5.8125 -26.59375 C 4.738281 -28.164062 4.203125 -30.128906 4.203125 -32.484375 C 4.203125 -34.878906 4.890625 -37.015625 6.265625 -38.890625 C 7.640625 -40.765625 9.523438 -42.210938 11.921875 -43.234375 C 14.328125 -44.265625 17.078125 -44.78125 20.171875 -44.78125 C 21.472656 -44.78125 22.734375 -44.71875 23.953125 -44.59375 C 25.179688 -44.46875 26.320312 -44.265625 27.375 -43.984375 C 28.425781 -43.710938 29.378906 -43.40625 30.234375 -43.0625 L 30.828125 -33.6875 L 27.609375 -33.375 L 25.5 -39.6875 C 23.90625 -40.6875 21.859375 -41.1875 19.359375 -41.1875 C 16.804688 -41.1875 14.765625 -40.5625 13.234375 -39.3125 C 11.710938 -38.0625 10.953125 -36.4375 10.953125 -34.4375 C 10.953125 -32.632812 11.488281 -31.117188 12.5625 -29.890625 C 13.632812 -28.660156 15.007812 -27.597656 16.6875 -26.703125 C 18.363281 -25.804688 20.140625 -24.941406 22.015625 -24.109375 C 23.890625 -23.285156 25.664062 -22.347656 27.34375 -21.296875 C 29.019531 -20.253906 30.394531 -18.96875 31.46875 -17.4375 C 32.539062 -15.914062 33.078125 -14.03125 33.078125 -11.78125 C 33.078125 -9.375 32.375 -7.234375 30.96875 -5.359375 C 29.570312 -3.484375 27.660156 -2.007812 25.234375 -0.9375 C 22.816406 0.132812 20.03125 0.671875 16.875 0.671875 Z M 16.875 0.671875 "/></g></g><g style="fill:rgb(1.179504%,23.919678%,40.779114%);fill-opacity:1;"><g transform="translate(1009.244397, 619.029253)"><path style="stroke:none;" d="M 26.171875 0.671875 C 21.828125 0.671875 17.96875 -0.273438 14.59375 -2.171875 C 11.21875 -4.078125 8.578125 -6.726562 6.671875 -10.125 C 4.773438 -13.53125 3.828125 -17.429688 3.828125 -21.828125 C 3.828125 -26.222656 4.789062 -30.144531 6.71875 -33.59375 C 8.644531 -37.050781 11.316406 -39.765625 14.734375 -41.734375 C 18.160156 -43.710938 22.023438 -44.703125 26.328125 -44.703125 C 30.523438 -44.703125 34.222656 -43.75 37.421875 -41.84375 C 40.628906 -39.945312 43.144531 -37.320312 44.96875 -33.96875 C 46.789062 -30.625 47.703125 -26.753906 47.703125 -22.359375 C 47.703125 -19.003906 47.125 -15.925781 45.96875 -13.125 C 44.820312 -10.320312 43.25 -7.882812 41.25 -5.8125 C 39.25 -3.738281 36.960938 -2.140625 34.390625 -1.015625 C 31.816406 0.109375 29.078125 0.671875 26.171875 0.671875 Z M 26.859375 -3.375 C 29.609375 -3.375 31.96875 -4.070312 33.9375 -5.46875 C 35.914062 -6.875 37.441406 -8.863281 38.515625 -11.4375 C 39.585938 -14.007812 40.125 -17.046875 40.125 -20.546875 C 40.125 -24.597656 39.5 -28.148438 38.25 -31.203125 C 37 -34.253906 35.285156 -36.640625 33.109375 -38.359375 C 30.941406 -40.085938 28.378906 -40.953125 25.421875 -40.953125 C 21.171875 -40.953125 17.804688 -39.363281 15.328125 -36.1875 C 12.859375 -33.019531 11.625 -28.707031 11.625 -23.25 C 11.625 -19.351562 12.273438 -15.914062 13.578125 -12.9375 C 14.878906 -9.957031 16.675781 -7.617188 18.96875 -5.921875 C 21.269531 -4.222656 23.898438 -3.375 26.859375 -3.375 Z M 34.578125 -56.65625 L 31.65625 -57.703125 L 36.828125 -68.21875 L 42.828125 -66.484375 Z M 38.1875 -50.203125 L 35.625 -48.40625 L 23.25 -55.234375 L 27.75 -55.234375 L 15.375 -48.40625 L 12.828125 -50.203125 L 22.734375 -58.234375 L 28.28125 -58.234375 Z M 38.1875 -50.203125 "/></g></g><g style="fill:rgb(1.179504%,23.919678%,40.779114%);fill-opacity:1;"><g transform="translate(1080.597652, 619.029253)"><path style="stroke:none;" d="M 37.875 -10.734375 L 37.875 -27.53125 C 37.875 -30.476562 37.863281 -32.835938 37.84375 -34.609375 C 37.820312 -36.390625 37.769531 -37.71875 37.6875 -38.59375 C 37.613281 -39.46875 37.550781 -39.976562 37.5 -40.125 L 32.40625 -41.1875 L 32.625 -44.03125 L 46.875 -44.03125 L 47.109375 -41.1875 L 42.453125 -40.125 C 42.453125 -39.976562 42.414062 -39.46875 42.34375 -38.59375 C 42.269531 -37.71875 42.207031 -36.378906 42.15625 -34.578125 C 42.101562 -32.773438 42.078125 -30.425781 42.078125 -27.53125 L 42.078125 -9.671875 C 42.078125 -8.078125 42.078125 -6.453125 42.078125 -4.796875 C 42.078125 -3.148438 42.101562 -1.453125 42.15625 0.296875 L 38.78125 0.296875 L 11.171875 -36.828125 L 12.828125 -36.828125 L 12.828125 -16.734375 C 12.828125 -13.734375 12.851562 -11.332031 12.90625 -9.53125 C 12.957031 -7.726562 13.019531 -6.390625 13.09375 -5.515625 C 13.164062 -4.640625 13.226562 -4.101562 13.28125 -3.90625 L 18.375 -2.84375 L 18.15625 0 L 3.75 0 L 3.53125 -2.84375 L 8.09375 -3.90625 C 8.195312 -4.101562 8.273438 -4.625 8.328125 -5.46875 C 8.378906 -6.320312 8.425781 -7.660156 8.46875 -9.484375 C 8.519531 -11.316406 8.546875 -13.734375 8.546875 -16.734375 L 8.546875 -29.5625 C 8.546875 -31.8125 8.519531 -33.660156 8.46875 -35.109375 C 8.425781 -36.554688 8.378906 -37.679688 8.328125 -38.484375 C 8.273438 -39.285156 8.195312 -39.832031 8.09375 -40.125 L 3.53125 -41.1875 L 3.75 -44.03125 L 14.03125 -44.03125 L 39.234375 -10.734375 Z M 37.875 -10.734375 "/></g></g><g style="fill:rgb(1.179504%,23.919678%,40.779114%);fill-opacity:1;"><g transform="translate(1151.050756, 619.029253)"><path style="stroke:none;" d="M 28.046875 0.671875 C 23.546875 0.671875 19.457031 -0.160156 15.78125 -1.828125 C 12.113281 -3.503906 9.203125 -5.992188 7.046875 -9.296875 C 4.898438 -12.597656 3.828125 -16.703125 3.828125 -21.609375 C 3.828125 -24.753906 4.390625 -27.710938 5.515625 -30.484375 C 6.640625 -33.265625 8.265625 -35.726562 10.390625 -37.875 C 12.515625 -40.03125 15.113281 -41.707031 18.1875 -42.90625 C 21.257812 -44.101562 24.773438 -44.703125 28.734375 -44.703125 C 30.828125 -44.703125 33.035156 -44.5 35.359375 -44.09375 C 37.691406 -43.695312 39.707031 -43.125 41.40625 -42.375 L 41.859375 -32.5625 L 38.5625 -32.25 L 36.375 -38.9375 C 35.425781 -39.632812 34.148438 -40.128906 32.546875 -40.421875 C 30.953125 -40.722656 29.476562 -40.875 28.125 -40.875 C 24.28125 -40.875 21.144531 -40.0625 18.71875 -38.4375 C 16.289062 -36.8125 14.5 -34.648438 13.34375 -31.953125 C 12.195312 -29.253906 11.625 -26.28125 11.625 -23.03125 C 11.625 -18.78125 12.382812 -15.164062 13.90625 -12.1875 C 15.4375 -9.207031 17.5 -6.96875 20.09375 -5.46875 C 22.695312 -3.96875 25.625 -3.21875 28.875 -3.21875 C 30.28125 -3.21875 31.84375 -3.414062 33.5625 -3.8125 C 35.289062 -4.21875 36.832031 -4.921875 38.1875 -5.921875 L 36.375 -1.71875 L 36.375 -9.609375 C 36.375 -11.253906 36.347656 -12.703125 36.296875 -13.953125 C 36.253906 -15.203125 36.179688 -16.148438 36.078125 -16.796875 L 30.984375 -17.625 L 31.125 -20.625 L 45.75 -20.625 L 45.90625 -17.78125 L 42.609375 -16.875 C 42.609375 -16.625 42.609375 -16.023438 42.609375 -15.078125 C 42.609375 -14.128906 42.609375 -12.976562 42.609375 -11.625 C 42.609375 -9.875 42.628906 -8.398438 42.671875 -7.203125 C 42.722656 -6.003906 42.773438 -4.753906 42.828125 -3.453125 C 40.878906 -2.148438 38.539062 -1.132812 35.8125 -0.40625 C 33.09375 0.3125 30.503906 0.671875 28.046875 0.671875 Z M 28.046875 0.671875 "/></g></g></g></svg>